<svg xmlns="http://www.w3.org/2000/svg" fill="none" viewBox="0 0 48 48"><g fill="#1400FF" clip-path="url(#a)"><path d="M44.084 37.143C39.797 43.682 32.403 48 24 48c-.474 0-.944-.014-1.41-.04V37.142h21.494ZM47.632 28.212H22.657c.02-.482.047-.927.08-1.343.142-1.725.394-2.554.673-3.102a7.534 7.534 0 0 1 3.292-3.293c.55-.28 1.378-.531 3.103-.672 1.776-.145 4.083-.149 7.517-.149h10.285A24.14 24.14 0 0 1 48 24c0 1.437-.126 2.845-.368 4.212Z"/><path d="M13.72 28.212a45.3 45.3 0 0 1 .116-2.07c.187-2.277.589-4.412 1.617-6.43a16.465 16.465 0 0 1 7.195-7.195c2.018-1.028 4.152-1.43 6.43-1.616 2.183-.179 4.857-.179 8.062-.179h6.856C39.696 4.26 32.346 0 24 0 10.745 0 0 10.745 0 24c0 1.437.126 2.845.368 4.212H13.72ZM13.658 37.143H3.916a24.104 24.104 0 0 0 9.742 8.52v-8.52Z"/></g><defs><clipPath id="a"><path fill="#fff" d="M0 0h48v48H0z"/></clipPath></defs></svg>