<svg width="1600" height="800" viewBox="0 0 1600 800" fill="none" xmlns="http://www.w3.org/2000/svg">
<g clip-path="url(#clip0_4841_4587)">
<path d="M175.92 54.2025V0H139.31C115.537 0 96.5185 3.16974 82.2547 9.50923C68.3078 15.5317 58.1647 24.724 51.8252 37.0859C45.4857 49.4479 42.316 65.6136 42.316 85.5829V92.2393H0V151.672H42.316V339.479H116.963V151.672H171.641V92.2393H116.963V91.7639C116.963 81.3038 118.073 73.3794 120.292 67.9909C122.827 62.6023 126.631 58.9571 131.703 57.0553C136.774 55.1534 144.223 54.2025 154.049 54.2025H175.92Z" fill="#1400FF"/>
<path d="M863.409 329.97C879.574 336.31 902.555 339.48 932.35 339.48H984.651V279.096H944.712C930.448 279.096 919.671 277.511 912.381 274.341C905.091 271.172 900.019 266.259 897.166 259.602C894.63 252.629 893.363 242.961 893.363 230.599V151.673H980.372V92.2401H893.363V30.4302H818.24V92.2401H772.596V151.673H818.24V235.354C818.24 261.98 821.727 282.741 828.7 297.639C835.673 312.537 847.243 323.314 863.409 329.97Z" fill="#1400FF"/>
<path fill-rule="evenodd" clip-rule="evenodd" d="M1151.15 344.709C1120.09 344.709 1093.15 339.796 1070.32 329.97C1047.5 320.144 1029.91 306.039 1017.55 287.654C1005.5 269.27 999.48 247.398 999.48 222.041V209.679C999.48 184.638 1005.66 162.925 1018.02 144.54C1030.39 125.839 1047.98 111.575 1070.8 101.749C1093.62 91.9229 1120.56 87.0098 1151.63 87.0098C1182.69 87.0098 1209 91.9229 1230.55 101.749C1252.43 111.575 1268.75 125.681 1279.53 144.065C1290.62 162.133 1296.17 183.845 1296.17 209.203C1296.17 213.007 1296.01 216.969 1295.69 221.09C1295.69 224.893 1295.53 229.172 1295.22 233.927L1073.35 230.46C1074.1 241.989 1077.21 251.861 1082.69 260.077C1089.03 269.587 1098.22 276.718 1110.26 281.473C1122.31 286.228 1137.05 288.605 1154.48 288.605C1171.28 288.605 1186.97 285.911 1201.55 280.522C1216.13 274.817 1229.92 267.051 1242.92 257.225L1283.33 302.869C1270.02 315.548 1251.47 325.691 1227.7 333.298C1203.93 340.906 1178.41 344.709 1151.15 344.709ZM1082.69 170.691C1078.42 177.084 1075.59 184.336 1074.2 192.448L1221.56 185.449C1219.96 173.524 1213.93 163.533 1203.45 155.476C1191.41 145.967 1174.13 141.212 1151.63 141.212C1135.78 141.212 1121.99 143.748 1110.26 148.82C1098.53 153.574 1089.34 160.865 1082.69 170.691Z" fill="#1400FF"/>
<path d="M1321.86 92.2394H1396.5V121.478C1399.72 117.574 1403.53 113.851 1407.91 110.307C1416.47 103.65 1427.25 98.2619 1440.25 94.1413C1453.24 89.7036 1468.3 87.4848 1485.41 87.4848C1512.04 87.4848 1533.75 91.9224 1550.55 100.798C1567.67 109.356 1580.19 122.193 1588.11 139.31C1596.04 156.427 1600 177.664 1600 203.022V339.479H1524.88V212.055C1524.88 187.965 1519.81 170.69 1509.66 160.23C1499.84 149.77 1483.51 144.54 1460.69 144.54C1445.16 144.54 1432.8 146.917 1423.6 151.672C1414.41 156.427 1407.6 163.717 1403.16 173.543C1398.72 183.052 1396.5 195.89 1396.5 212.055V339.479H1321.86V92.2394Z" fill="#1400FF"/>
<path d="M643.763 30.4313C643.881 31.5612 644.003 32.6853 644.129 33.8039C646.344 53.4108 649.96 71.5045 656.048 88.5709C644.107 87.2148 631.76 86.5368 619.006 86.5368C577.799 86.5368 546.419 93.3517 524.865 106.982C503.627 120.294 493.009 139.947 493.009 165.939C493.009 184.006 499.19 198.428 511.552 209.206C523.914 219.666 538.336 227.273 554.819 232.028C571.618 236.782 593.014 241.22 619.006 245.341C633.904 247.876 645.632 250.095 654.19 251.997C662.748 253.899 669.722 256.435 675.11 259.604C680.499 262.774 683.193 266.895 683.193 271.966C683.193 278.623 678.914 283.853 670.355 287.657C662.114 291.143 648.484 292.887 629.466 292.887C608.229 292.887 587.625 290.034 567.656 284.328C547.687 278.623 530.887 270.223 517.257 259.129L477.319 304.298C487.779 313.49 500.775 321.256 516.306 327.595C532.155 333.618 549.272 338.055 567.656 340.908C586.357 343.761 605.376 345.187 624.711 345.187C667.503 345.187 699.834 338.531 721.705 325.218C743.576 311.588 754.512 291.46 754.512 264.834C754.512 247.084 748.173 232.979 735.494 222.519C723.132 211.741 708.392 203.976 691.276 199.221C674.159 194.149 652.605 189.553 626.613 185.433C611.398 182.263 599.829 179.727 591.904 177.825C583.98 175.923 577.324 173.388 571.935 170.218C566.547 167.048 563.852 163.244 563.852 158.807C563.852 152.467 568.29 147.554 577.165 144.068C586.357 140.581 599.987 138.837 618.055 138.837C636.439 138.837 653.873 141.532 670.355 146.92C686.267 151.816 700.849 159.37 714.101 169.583C714.366 169.811 714.632 170.04 714.898 170.268C715.119 170.458 715.341 170.648 715.563 170.837L754.635 125.036C736.804 109.824 725.824 96.1565 718.507 81.7654C711.496 67.9767 707.029 51.923 704.353 30.4313H643.763Z" fill="#1400FF"/>
<path fill-rule="evenodd" clip-rule="evenodd" d="M357.765 330.922C370.552 325.052 380.22 317.797 386.768 309.155V339.48H456.661V178.774C456.661 156.586 451.114 138.835 440.02 125.523C428.926 111.893 413.553 102.225 393.9 96.5195C374.565 90.814 351.584 87.9612 324.959 87.9612C298.65 87.9612 273.45 91.9234 249.36 99.8477C225.27 107.772 206.569 118.866 193.256 133.13L236.523 173.544C247.3 164.035 260.296 156.586 275.511 151.197C291.042 145.492 307.208 142.639 324.008 142.639C337.954 142.639 349.365 144.224 358.241 147.394C367.116 150.564 373.614 155.16 377.735 161.182C382.172 166.888 384.391 174.02 384.391 182.578V193.038H306.891C276.779 193.038 252.372 195.732 233.67 201.121C215.286 206.509 201.656 214.909 192.781 226.32C184.222 237.414 179.943 251.837 179.943 269.587C179.943 293.677 189.769 312.062 209.422 324.741C229.074 337.419 255.541 343.759 288.824 343.759C315.766 343.759 338.747 339.48 357.765 330.922ZM303.087 289.556C320.204 289.556 334.785 288.13 346.83 285.277C358.875 282.108 368.067 277.67 374.406 271.964C381.063 265.942 384.391 258.652 384.391 250.093V239.158H307.366C293.737 239.158 282.96 240.109 275.035 242.01C267.111 243.595 261.247 246.29 257.443 250.093C253.956 253.897 252.213 258.652 252.213 264.357C252.213 272.598 256.334 278.938 264.575 283.375C273.133 287.496 285.971 289.556 303.087 289.556Z" fill="#1400FF"/>
<path d="M1147.55 689.399H1147.54L1089.63 689.196L496.145 687.044L425.191 686.783L371.702 686.593C371.133 686.593 370.551 686.566 369.988 686.49C362.198 685.533 283.337 675.516 282.692 660.027C282.629 658.462 283.256 654.285 285.164 650.068C287.951 643.906 292.471 639.879 297.478 636.387C313.575 625.165 341.409 614.85 344.846 613.587C346.65 612.829 348.581 612.423 350.529 612.396L367.976 612.135L554.316 609.374L1025.15 602.41L1180.29 600.114C1181.53 600.101 1182.76 600.232 1183.95 600.507L1212.42 607.092C1268.84 626.884 1296.28 643.279 1294.76 656.274C1292.81 672.845 1243.74 683.892 1147.54 689.403L1147.55 689.399Z" fill="#1C1D1F"/>
<path d="M1325.86 508.289C1325.4 515.298 1324.29 532.6 1323.19 555.73C1321.73 586.261 1294.11 599.35 1294.11 599.35L1215.59 610.983L1026.94 621.158H554.037C491.995 620.68 429.968 620.184 367.931 619.706C355.018 620.445 337.323 620.071 317.044 615.344C302.705 611.993 290.644 607.302 281.114 602.787C279.499 602.025 278.408 600.478 278.227 598.701C277.181 588.299 276.012 575.787 274.88 561.543C273.82 548.08 273.356 540.358 275.607 530.282C275.737 529.686 275.855 529.19 275.985 528.725C276.685 526.096 277.569 524.45 282.151 512.104C291.749 486.269 293.116 479.39 301.055 469.941C301.1 469.896 301.14 469.837 301.185 469.796C304.063 466.377 306.593 464.068 308.659 462.192C308.659 462.192 319.606 450.383 336.678 444.497C378.842 429.956 499.523 416.871 499.523 416.871C559.165 384.359 618.807 351.848 678.448 319.323C681.34 317.74 684.294 316.256 687.275 314.858H687.289C709.855 304.285 734.599 299.04 759.609 299.576C763.624 299.662 767.809 299.752 772.144 299.825C885.875 301.877 924.751 296.667 994.599 304.186C1012.21 306.085 1040.66 309.748 1075.96 317.253L1076.02 317.275L1214.15 381.252C1214.15 381.252 1285.39 381.252 1298.48 398.698C1300.12 400.895 1301.51 403.89 1302.64 407.421C1303.22 409.226 1303.75 411.174 1304.21 413.235C1306.3 422.54 1307.29 434.159 1307.67 445.223C1307.73 446.617 1307.77 448.015 1307.8 449.382C1308.04 459.558 1307.81 468.939 1307.58 475.204C1307.51 477.18 1307.44 478.84 1307.37 480.121C1307.28 481.984 1307.21 483.03 1307.21 483.03L1323.84 502.222C1325.3 503.895 1326.03 506.06 1325.88 508.284L1325.86 508.289Z" fill="white"/>
<path d="M403.554 530.743L350.484 507.753" stroke="#BCBCBC" stroke-width="1.16724" stroke-miterlimit="10"/>
<path d="M1177.79 532.468L1219.56 493.155C1224.48 488.518 1230.99 485.938 1237.75 485.938H1270.6C1275.51 485.938 1280.33 484.576 1284.51 482.001L1297.02 474.306" stroke="#BCBCBC" stroke-width="1.16724" stroke-miterlimit="10"/>
<path d="M554.763 600.081C554.763 603.221 554.605 606.319 554.312 609.373C550.839 644.69 527.777 674.247 496.141 687.043L425.187 686.781C394.71 674.188 372.32 645.984 367.972 612.133C367.462 608.191 367.2 604.168 367.2 600.081C367.2 548.292 409.193 506.3 460.982 506.3C512.771 506.3 554.763 548.292 554.763 600.081Z" fill="#1C1D1F"/>
<path d="M460.986 677.866C503.947 677.866 538.773 643.04 538.773 600.079C538.773 557.118 503.947 522.292 460.986 522.292C418.026 522.292 383.199 557.118 383.199 600.079C383.199 643.04 418.026 677.866 460.986 677.866Z" fill="#ECDFCF"/>
<path d="M460.987 657.513C492.705 657.513 518.418 631.8 518.418 600.081C518.418 568.362 492.705 542.649 460.987 542.649C429.268 542.649 403.555 568.362 403.555 600.081C403.555 631.8 429.268 657.513 460.987 657.513Z" fill="#1C1D1F"/>
<path d="M1212.68 600.079C1212.68 602.433 1212.6 604.774 1212.42 607.088C1209.56 645.806 1183.2 677.983 1147.55 689.399H1147.54L1089.63 689.196C1052.88 677.126 1026.15 642.96 1025.16 602.411C1025.14 601.639 1025.13 600.868 1025.13 600.083C1025.13 548.294 1067.12 506.302 1118.91 506.302C1170.7 506.302 1212.69 548.294 1212.69 600.083L1212.68 600.079Z" fill="#1C1D1F"/>
<path d="M1118.9 677.866C1161.86 677.866 1196.69 643.04 1196.69 600.079C1196.69 557.118 1161.86 522.292 1118.9 522.292C1075.94 522.292 1041.12 557.118 1041.12 600.079C1041.12 643.04 1075.94 677.866 1118.9 677.866Z" fill="#ECDFCF"/>
<path d="M1118.9 657.513C1150.62 657.513 1176.33 631.8 1176.33 600.081C1176.33 568.362 1150.62 542.649 1118.9 542.649C1087.18 542.649 1061.47 568.362 1061.47 600.081C1061.47 631.8 1087.18 657.513 1118.9 657.513Z" fill="#1C1D1F"/>
<path d="M316.147 560.543L301.741 567.746C300.41 568.414 299.521 569.726 299.409 571.215L298.466 583.497C298.285 585.833 300.036 587.867 302.367 588.048L314.086 588.95C315.863 589.085 317.532 588.097 318.271 586.478L324.13 573.587C324.252 573.321 324.347 573.041 324.41 572.753L326.074 565.256C326.661 562.609 324.649 560.096 321.934 560.096H318.041C317.383 560.096 316.733 560.25 316.147 560.543Z" fill="#E4EBF9"/>
<path d="M306.864 475.763C302.782 484.445 297.978 493.723 292.322 503.389C286.873 512.703 281.353 521.147 275.981 528.734C276.68 526.104 277.564 524.458 282.146 512.113C291.745 486.277 293.111 479.398 301.05 469.949C301.095 469.904 301.136 469.845 304.816 471.225C304.816 471.225 305.506 471.915 306.868 475.763H306.864Z" fill="#E4EBF9"/>
<path d="M287.96 525.198C287.96 525.198 301.045 491.757 324.31 471.402C324.31 471.402 367.931 451.046 408.642 451.046L350.484 507.751C350.484 507.751 330.129 531.016 287.965 525.198H287.96Z" fill="#1400FF"/>
<path d="M296.418 519.346C295.877 519.373 295.512 518.814 295.751 518.331C298.876 512.044 315.552 479.559 328.672 474.309C340.467 469.591 367.571 464.873 380.489 464.034C381.981 463.94 382.464 466.001 381.088 466.592L356.664 477.06C356.443 477.155 356.299 477.363 356.29 477.602C356.168 480.561 354.594 499.825 334.491 509.202C316.03 517.817 300.69 519.138 296.418 519.341V519.346Z" fill="white"/>
<path d="M324.31 471.402C324.31 471.402 315.253 472.48 305.244 465.399" stroke="#E4EBF9" stroke-width="1.16724" stroke-miterlimit="10"/>
<path d="M408.642 451.047L471.161 443.776L494.426 423.42" stroke="#BCBCBC" stroke-width="1.16724" stroke-miterlimit="10"/>
<path d="M708.181 319.035C710.143 319.428 710.545 322.053 708.79 323.009C680.613 338.313 546.685 410.954 533.685 416.154C519.144 421.968 499.519 416.881 499.519 416.881C559.16 384.369 618.802 351.858 678.444 319.333C681.335 317.75 684.289 316.266 687.271 314.868H687.284L708.186 319.035H708.181Z" fill="#F6F7FA"/>
<path d="M1214.14 381.256H1198.71C1198.33 381.256 1197.97 381.175 1197.63 381.017L1073.78 323.315C1072.1 322.53 1071.79 320.275 1073.19 319.066L1075.13 317.402L1076.01 317.28L1214.14 381.256Z" fill="#F6F7FA"/>
<path d="M636.186 374.716L580.937 403.795C580.937 403.795 567.852 411.066 566.396 453.23C564.943 495.393 560.582 533.2 576.571 598.629L976.414 594.267C976.414 594.267 999.679 576.82 1009.85 562.279C1020.03 547.737 1118.9 427.276 1118.9 427.276C1118.9 427.276 1131.37 403.795 1106.24 381.261C1092.35 369.637 1075.54 357.08 1055.66 344.911C1046.76 339.463 1038.08 334.605 1029.72 330.266C1014.09 322.151 996.995 317.271 979.44 315.904C969.156 315.102 958.264 314.38 952.427 314.38C941.259 314.38 783.939 321.795 738.072 323.965C729.877 324.352 721.884 326.644 714.731 330.658L636.19 374.716H636.186Z" stroke="#BCBCBC" stroke-width="1.16724" stroke-miterlimit="10"/>
<path d="M1088.62 398.497C1086.94 399.575 1084.98 400.143 1082.99 400.261L1054.68 401.907L1017.26 404.072L956.369 407.608L910.872 410.238L857.888 413.323L604.712 427.991L586.115 429.069C584.324 429.168 582.755 427.801 582.71 425.997C582.362 414.965 593.296 408.885 593.296 408.885L604.712 402.683L724.699 337.475C726.255 336.627 727.978 336.135 729.746 336.023L883.074 326.519H883.173L891.36 326.01C891.36 326.01 916.659 325.08 943.573 325.473C964.086 325.761 985.534 326.826 997.455 329.645C999.854 330.213 1002.46 331.025 1005.24 332.031C1014.13 335.256 1024.72 340.551 1035.33 346.64C1041.91 350.393 1048.48 354.466 1054.68 358.534C1071.2 369.382 1085.09 380.27 1089.1 385.624C1094.43 392.733 1091.61 396.58 1088.62 398.501V398.497Z" fill="#ECDFCF"/>
<path d="M604.712 402.679V427.987L586.115 429.065C584.324 429.164 582.755 427.797 582.71 425.993C582.362 414.961 593.296 408.881 593.296 408.881L604.712 402.679Z" fill="#1C1D1F"/>
<path d="M1035.62 346.134C1024.99 340.037 1014.38 334.724 1005.43 331.482L1005.24 332.031L1005.43 331.482C1002.64 330.471 1000.02 329.652 997.589 329.077L997.455 329.645L997.589 329.077C985.596 326.241 964.085 325.178 943.581 324.889C930.116 324.693 917.056 324.827 907.363 325.01C902.516 325.102 898.51 325.206 895.716 325.287C894.319 325.328 893.225 325.362 892.48 325.387C892.108 325.399 891.822 325.409 891.63 325.416L891.412 325.424L891.357 325.426L891.343 325.426L891.34 325.426L891.339 325.426C891.339 325.426 891.338 325.426 891.36 326.01L891.338 325.426L891.331 325.427L891.324 325.427L883.155 325.936H883.074H883.056L883.038 325.937L727.026 335.607L726.897 335.615L726.784 335.677L604.433 402.17L604.433 402.17L593.017 408.372L593.012 408.374L593.296 408.885C593.012 408.374 593.012 408.375 593.012 408.375L593.011 408.375L593.009 408.376L593.001 408.381L592.974 408.396C592.952 408.409 592.919 408.428 592.876 408.453C592.792 408.503 592.67 408.576 592.516 408.673C592.208 408.867 591.771 409.155 591.249 409.535C590.207 410.294 588.821 411.423 587.445 412.907C584.696 415.869 581.947 420.289 582.126 426.014C582.181 428.165 584.047 429.768 586.147 429.652L586.149 429.651L604.746 428.573L857.922 413.905L910.906 410.82L910.906 410.82L956.403 408.191L956.369 407.608L956.403 408.191L1017.29 404.655L1054.72 402.49L1054.69 401.971L1054.72 402.49L1084.77 400.744L1084.82 400.741L1084.86 400.731L1084.74 400.161C1084.86 400.731 1084.86 400.731 1084.86 400.731L1084.86 400.731L1084.87 400.73L1084.88 400.728L1084.91 400.72C1084.94 400.714 1084.98 400.704 1085.03 400.691C1085.07 400.68 1085.12 400.667 1085.18 400.651C1085.26 400.629 1085.35 400.604 1085.45 400.573C1085.81 400.466 1086.3 400.301 1086.87 400.064C1088 399.595 1089.44 398.833 1090.6 397.668C1091.78 396.493 1092.68 394.898 1092.68 392.803C1092.68 390.725 1091.79 388.241 1089.57 385.274C1087.51 382.528 1082.98 378.426 1076.94 373.681C1070.89 368.921 1063.27 363.478 1055 358.047L1055 358.046C1048.79 353.973 1042.21 349.893 1035.62 346.134ZM1035.62 346.134L1035.33 346.64L1035.62 346.133C1035.62 346.134 1035.62 346.134 1035.62 346.134Z" stroke="#BCBCBC" stroke-width="1.16724" stroke-miterlimit="10"/>
<path d="M1028.03 449.595L1037.38 438.788C1038.85 437.322 1040.81 436.46 1042.88 436.375L1074.56 435.053C1074.56 435.053 1079.41 433.601 1076.98 442.324C1075.4 448.034 1071.85 452.342 1069.59 454.637C1068.4 455.846 1066.78 456.541 1065.09 456.631L1032.39 458.322C1032.39 458.322 1025.12 458.322 1028.03 449.599V449.595Z" fill="#E4EBF9"/>
<path d="M1035.09 446.064L1040.46 440.074C1040.84 439.654 1041.39 439.397 1041.96 439.375L1072.57 438.044C1074.01 437.981 1075.1 439.289 1074.69 440.606C1074.43 441.427 1073.93 442.473 1073.02 443.772C1069.98 448.134 1065.41 448.134 1065.41 448.134C1055.87 448.549 1046.32 448.964 1036.78 449.379C1034.93 449.46 1033.88 447.399 1035.08 446.059L1035.09 446.064Z" fill="white"/>
<path d="M1307.57 475.213C1307.5 477.189 1307.43 478.848 1307.35 480.129H1303.89C1302.31 480.129 1300.8 479.403 1299.82 478.167L1296.84 474.415L1259.08 426.942C1257.44 424.876 1257.61 421.895 1259.47 420.037L1270.55 408.959C1271.52 407.985 1272.84 407.434 1274.23 407.434H1302.63C1303.21 409.239 1303.73 411.187 1304.2 413.248C1306.29 422.553 1307.28 434.172 1307.66 445.237C1307.71 446.63 1307.76 448.029 1307.79 449.395C1308.02 459.571 1307.8 468.953 1307.57 475.218V475.213Z" fill="#1400FF"/>
<path d="M1307.66 445.233H1292.87C1291.03 445.233 1289.4 444.011 1288.89 442.225L1283.39 423.105C1282.98 421.653 1283.38 420.079 1284.44 419.019L1288.99 414.468C1289.78 413.683 1290.84 413.245 1291.93 413.245H1304.2C1306.29 422.55 1307.28 434.169 1307.66 445.233H1307.66Z" fill="white"/>
<path d="M1307.57 475.215L1297.96 467.885C1297.33 467.421 1296.87 466.78 1296.59 466.054L1292.43 455.297C1291.82 453.754 1292.2 451.995 1293.38 450.818L1293.57 450.615C1294.35 449.83 1295.43 449.393 1296.55 449.393H1307.79C1308.03 459.568 1307.81 468.95 1307.58 475.215H1307.57Z" fill="white"/>
<path d="M1084.74 400.158L1054.68 401.904V358.531C1071.2 369.379 1085.08 380.267 1089.1 385.617C1097.82 397.249 1084.74 400.158 1084.74 400.158Z" fill="#1C1D1F"/>
<path d="M1035.33 346.639L1017.26 404.07L956.364 407.602L1005.23 332.025C1014.13 335.255 1024.72 340.545 1035.33 346.639Z" fill="#F6F7FA"/>
<path d="M943.569 325.468L910.872 410.237L857.888 413.318L883.07 326.514H883.174L943.569 325.468Z" fill="#F6F7FA"/>
<g clip-path="url(#clip1_4841_4587)">
<path d="M526.469 773.169C526.469 773.169 543.847 909.2 558.795 946L602.051 929.604L600.812 766.311L526.469 773.169Z" fill="#FFCBC8"/>
<path d="M1046.62 773.169C1046.62 773.169 1029.25 909.2 1014.3 946L971.042 929.604L972.281 766.311L1046.62 773.169Z" fill="#FFCBC8"/>
<path d="M826.311 294.382C826.311 294.382 831.482 294.869 830.29 304.143C829.098 313.416 825.56 320.252 824.539 326.104C823.517 331.956 820.738 341.237 811.186 339.766L815.559 313.409C815.559 313.409 819.143 294.374 826.303 294.374L826.311 294.382Z" fill="#F6C9C7"/>
<path d="M698.332 339.689L694.159 308.942C694.159 308.942 689.678 291.022 685.242 292.175C680.807 293.329 677.88 299.181 682.053 310.9C686.225 322.612 685.815 327.984 687.061 331.398C688.307 334.812 690.405 338.721 698.34 339.696L698.332 339.689Z" fill="#F6C9C7"/>
<path d="M705.283 368.57C705.554 374.716 705.655 381.149 705.531 387.852C705.26 402.591 703.952 416.161 702.117 428.36C705.856 433.98 716.182 447.813 735.062 454.641C766.838 466.128 794.899 447.666 798.026 445.53C798.026 445.53 806.325 434.584 808.035 422.81C809.746 411.036 806.178 361.696 806.178 361.696L705.291 368.57H705.283Z" fill="#F6C9C7"/>
<path d="M705.283 368.57C712.01 378.292 723.211 381.822 730.72 384.485C737.121 386.761 744.816 388.239 754.012 387.961C769.904 387.488 781.693 382.658 790.131 377.139C795.286 373.772 800.17 370.706 804.196 364.614C808.353 358.329 808.716 353.258 811.193 339.89C812.339 333.72 814.135 324.702 816.806 313.656C816.395 282.337 815.993 251.017 815.583 219.705L781.414 209.426L700.878 219.218V228.491L685.304 257.581C685.041 279.79 687.75 296.951 690.39 308.779C693.687 323.564 696.025 326.189 698.951 342.986C701.513 357.733 700.84 362.153 705.275 368.562L705.283 368.57Z" fill="#F6C9C7"/>
<path d="M767.76 290.473C767.636 290.093 767.489 289.497 767.512 288.762C767.543 287.872 767.814 287.198 768 286.811C770.028 284.652 772.056 283.514 773.372 282.91C779.773 279.961 785.951 282.051 788.141 282.794C788.575 282.941 790.905 283.761 793.351 285.658C799.242 290.233 792.654 288.398 792.654 288.398C791.865 287.733 785.819 282.763 777.769 284.373C772.079 285.511 768.751 289.265 767.76 290.473Z" fill="#EDB0B0"/>
<path d="M740.914 291.456C740.914 291.456 740.566 286.185 734.76 283.816C728.955 281.447 720.208 282.144 711.894 289.118C711.399 289.498 711.197 290.148 711.391 290.728C711.592 291.34 712.196 291.743 712.854 291.704C713.612 290.86 718.938 285.132 727.5 285.356C735.271 285.558 740.055 290.527 740.922 291.456H740.914Z" fill="#EDB0B0"/>
<path d="M805.581 210.192C805.581 210.192 800.945 177.247 773.124 184.082C745.303 190.918 741.402 177.735 730.665 181.156C719.929 184.57 711.631 200.191 704.308 203.605C696.985 207.019 699.919 230.45 691.133 233.376C682.347 236.302 676.959 233.376 676.959 233.376C676.959 233.376 681.372 251.923 696.017 247.039C710.663 242.154 716.027 224.103 728.715 224.103C741.402 224.103 761.907 230.45 771.173 225.566C780.447 220.681 798.019 227.029 798.019 227.029C798.019 227.029 808.755 221.657 805.581 210.192Z" fill="#1C1D1F"/>
<path d="M691.125 310.491C691.125 310.491 687.224 263.635 695.026 254.849C702.829 246.063 701.993 244.074 701.993 244.074C701.993 244.074 678.43 242.154 680.876 262.164C683.314 282.175 680.698 293.716 680.698 293.716C680.984 295.876 681.813 299.824 684.537 303.895C686.79 307.263 689.422 309.337 691.125 310.483V310.491Z" fill="#1C1D1F"/>
<path d="M798.018 227.029C798.018 227.029 811.549 236.96 811.124 247.859C810.706 258.758 811.193 263.635 813.632 269.007C816.07 274.38 816.558 313.424 816.558 313.424C818.354 311.032 820.335 308.029 822.17 304.399C823.981 300.815 825.22 297.47 826.071 294.637C827.72 291.007 829.539 285.991 830.46 279.814C831.753 271.183 830.755 263.96 829.725 259.324C829.725 259.324 840.647 239.244 834.695 227.044C828.75 214.845 818.493 203.125 805.566 210.208L798.003 227.044L798.018 227.029Z" fill="#1C1D1F"/>
<path d="M766.954 265.957C766.954 265.957 763.711 270.276 765.871 274.604C765.871 274.604 793.428 271.902 808.02 278.923C808.02 278.923 807.478 273.52 799.373 267.033C799.373 267.033 785.889 268.117 778.31 265.949C778.31 265.949 773.975 265.949 771.816 269.193C771.816 269.193 772.358 266.491 773.975 265.407C773.975 265.407 768.03 267.567 767.489 270.269C767.489 270.269 766.405 268.651 766.947 265.949L766.954 265.957Z" fill="#1C1D1F"/>
<path d="M700.646 278.908C700.646 278.908 722.174 271.26 741.394 274.813C741.394 274.813 745.342 270.826 741.394 265.439C741.394 265.439 741.758 268.132 740.674 269.75C740.674 269.75 738.878 266.515 736.007 265.439L737.981 269.208C737.981 269.208 735.287 265.973 732.051 265.973C728.815 265.973 711.035 267.049 711.035 267.049C711.035 267.049 704.254 271.902 700.639 278.908H700.646Z" fill="#1C1D1F"/>
<path d="M767.76 290.473C768.154 289.931 772.69 283.932 780.563 284.11C788.002 284.28 792.182 289.83 792.654 290.473H767.76Z" fill="white"/>
<mask id="mask0_4841_4587" style="mask-type:luminance" maskUnits="userSpaceOnUse" x="767" y="284" width="26" height="7">
<path d="M767.76 290.473C768.155 289.931 772.691 283.932 780.563 284.11C788.002 284.28 792.182 289.83 792.654 290.473H767.76Z" fill="white"/>
</mask>
<g mask="url(#mask0_4841_4587)">
<path d="M784.596 293.167C787.833 293.167 790.456 290.544 790.456 287.307C790.456 284.071 787.833 281.448 784.596 281.448C781.36 281.448 778.737 284.071 778.737 287.307C778.737 290.544 781.36 293.167 784.596 293.167Z" fill="#633939"/>
<path d="M784.596 289.745C785.943 289.745 787.035 288.654 787.035 287.307C787.035 285.96 785.943 284.869 784.596 284.869C783.25 284.869 782.158 285.96 782.158 287.307C782.158 288.654 783.25 289.745 784.596 289.745Z" fill="#1C1D1F"/>
</g>
<path d="M795.085 287.059C793.916 285.999 788.993 281.78 781.422 281.687C773.952 281.602 768.975 285.588 767.76 286.626" stroke="#F2A3A0" stroke-width="1.16113" stroke-miterlimit="10"/>
<path d="M737.98 320.012C737.98 320.012 733.181 325.183 742.656 325.864" stroke="#EC6249" stroke-width="1.16113" stroke-miterlimit="10"/>
<path d="M768.247 318.053C768.247 318.053 773.62 323.604 765.809 324.912" stroke="#EC6249" stroke-width="1.16113" stroke-miterlimit="10"/>
<path d="M742.54 325.748C742.54 325.748 746.774 322.69 751.163 327.567C751.163 327.567 748.067 324.897 742.54 325.748Z" fill="#EB6249" stroke="#EC6249" stroke-width="1.16113" stroke-linejoin="round"/>
<path d="M766.11 324.803C766.11 324.803 762.294 322.69 757.464 326.599C757.464 326.599 763.494 324.966 766.11 324.803Z" fill="#EB6249" stroke="#EC6249" stroke-width="1.16113" stroke-linejoin="round"/>
<path d="M751.163 327.567C751.163 327.567 754.972 329.03 757.464 326.592" stroke="#EC6249" stroke-width="1.16113" stroke-miterlimit="10"/>
<path d="M725.541 341.965C732.995 343.35 737.95 342.545 741.162 341.477C742.563 341.013 745.435 339.898 749.213 340.254C751.519 340.471 753.362 341.16 754.585 341.717C758.207 340.146 761.025 340.061 762.883 340.254C767.086 340.688 768.905 342.762 774.107 344.155C777.366 345.03 780.153 345.154 781.918 345.131C777.815 347.67 771.367 350.867 762.991 352.028C743.887 354.675 729.326 344.721 725.549 341.965H725.541Z" fill="#EA9F9B"/>
<path d="M740.914 291.456H712.877C713.736 290.543 718.605 285.511 726.516 285.356C734.876 285.194 740.101 290.589 740.914 291.456Z" fill="white"/>
<mask id="mask1_4841_4587" style="mask-type:luminance" maskUnits="userSpaceOnUse" x="712" y="285" width="29" height="7">
<path d="M740.914 291.456H712.877C713.736 290.543 718.605 285.511 726.516 285.356C734.876 285.194 740.102 290.589 740.914 291.456Z" fill="white"/>
</mask>
<g mask="url(#mask1_4841_4587)">
<path d="M729.931 294.142C733.167 294.142 735.79 291.518 735.79 288.282C735.79 285.046 733.167 282.422 729.931 282.422C726.694 282.422 724.071 285.046 724.071 288.282C724.071 291.518 726.694 294.142 729.931 294.142Z" fill="#633939"/>
<path d="M729.931 290.721C731.277 290.721 732.369 289.629 732.369 288.282C732.369 286.936 731.277 285.844 729.931 285.844C728.584 285.844 727.492 286.936 727.492 288.282C727.492 289.629 728.584 290.721 729.931 290.721Z" fill="#1C1D1F"/>
</g>
<path d="M737.98 285.596C737.98 285.596 725.742 275.835 710.384 290.481" stroke="#F2A3A0" stroke-width="1.16113" stroke-miterlimit="10"/>
<path d="M689.175 313.091C689.175 313.091 685.707 317.728 687.263 320.654C688.819 323.58 691.543 327.001 691.543 327.001C691.543 327.001 693.881 323.588 695.824 329.44" stroke="#EC6249" stroke-width="1.16113" stroke-miterlimit="10"/>
<path d="M687.471 327.002C687.967 328.256 688.927 330.23 690.761 332.126C692.17 333.582 693.61 334.495 694.663 335.052" stroke="#EC6249" stroke-width="1.16113" stroke-miterlimit="10"/>
<path d="M771.847 293.662C771.847 293.662 778.008 296.82 789.72 296.333" stroke="#EA9F9B" stroke-width="1.16113" stroke-miterlimit="10"/>
<path d="M736.68 294.382C736.68 294.382 728.219 297.795 717.97 297.308" stroke="#EA9F9B" stroke-width="1.16113" stroke-miterlimit="10"/>
<path d="M827.705 306.342C826.033 310.754 825.29 314.47 824.918 317.078C824.469 320.26 824.554 321.971 823.323 323.914C821.752 326.398 818.749 328.125 817.309 327.087C817.022 326.886 816.945 326.677 816.697 326.638C815.613 326.491 814.414 329.975 813.578 332.939" stroke="#EC6249" stroke-width="1.16113" stroke-miterlimit="10"/>
<path d="M818.354 330.988C818.354 330.988 821.14 330.857 822.332 328.24" stroke="#EC6249" stroke-width="1.16113" stroke-miterlimit="10"/>
<path d="M704.656 208.049C704.656 208.049 673.313 217.601 680.884 258.558L702.032 236.806L704.656 208.049Z" fill="#1C1D1F"/>
<path d="M1053.75 747.33C1052.17 759.986 1041.09 777.914 1041.09 777.914L963.054 764.731C963.054 764.731 965.159 762.099 966.746 757.881C968.325 753.662 963.054 751.549 960.491 746.037C958.711 742.221 961.134 740.015 960.515 737.615C960.313 736.81 959.872 736.392 959.369 736.044C958.68 735.572 957.852 735.208 957.263 734.147C956.218 732.259 956.691 730.734 956.892 727.544C957.349 720.392 955.522 719.664 956.737 715.167C957.511 712.279 958.641 712.574 959.4 709.245C960.228 705.669 959.354 702.959 960.422 698.299C960.422 698.299 960.422 698.284 960.429 698.253C960.429 698.237 960.429 698.222 960.437 698.191C960.437 698.16 960.445 698.129 960.453 698.083C961.498 690.272 935.109 628.694 935.109 628.694C935.109 628.694 938.275 657.164 944.599 687.222C950.924 717.28 957.782 748.917 954.616 761.047C951.45 773.169 941.96 788.991 947.758 827.487C953.563 865.974 923.506 875.472 923.506 875.472C903.155 887.153 883.78 896.225 865.418 903.115C786.57 932.731 726.261 922.204 686.411 905.127C649.201 889.189 629.817 867.553 629.817 867.553C629.817 867.553 615.056 849.625 616.108 836.969C617.161 824.321 644.579 810.611 647.745 804.806C650.911 799.008 639.308 776.335 634.563 761.573C631.288 751.386 631.784 697.773 632.395 665.509C632.682 651.01 632.984 640.823 632.984 640.823C632.984 640.823 632.024 645.754 630.491 652.11C627.929 662.746 623.756 677.337 619.801 679.319C613.477 682.485 614.003 700.939 614.529 703.571C615.056 706.203 614.529 725.191 611.363 726.244C608.553 727.18 604.923 729.363 604.505 734.263C604.451 734.883 604.451 735.548 604.505 736.261C605.031 742.593 602.399 746.277 599.233 753.136C596.067 759.994 601.339 762.1 600.812 766.318C600.286 770.537 526.462 773.169 526.462 773.169C526.462 773.169 526.988 757.354 527.514 754.188C528.041 751.022 524.882 730.989 520.137 724.657C515.392 718.333 526.988 703.037 536.486 689.854C545.976 676.671 554.414 581.242 553.887 574.91C553.361 568.586 561.791 467.351 586.577 465.238C611.356 463.132 699.152 405.176 699.152 405.176C704.439 432.509 724.813 452.945 747.502 455.693C777.838 459.362 811.418 431.278 811.929 390.778C832.605 393.457 853.273 396.127 873.949 398.806L889.33 405.176C889.33 405.176 902.42 415.147 915.076 422.005C927.732 428.856 944.607 429.908 959.369 433.601C974.131 437.293 974.131 443.617 982.568 464.185C991.006 484.752 992.585 489.497 995.751 510.057C998.917 530.617 1032.13 625.001 1032.13 625.001C1032.13 625.001 1045.84 671.4 1046.37 685.643C1046.89 699.879 1059.02 714.648 1062.18 724.657C1065.35 734.674 1055.33 734.674 1053.75 747.33Z" fill="#8CD3FF"/>
<path d="M699.137 214.218C699.137 214.218 699.137 241.915 676.952 233.377C676.952 233.377 681.875 251.119 702.001 244.082" stroke="#313233" stroke-width="1.16113" stroke-miterlimit="10"/>
<path d="M805.581 210.192C806.394 208.683 810.342 201.027 807.439 192.365C804.559 183.757 796.076 177.618 786.059 177.007C792.019 180.026 794.589 183.54 795.82 186.281C798.034 191.204 798.227 198.72 798.258 198.968C800.697 202.707 803.143 206.453 805.581 210.192Z" fill="#1C1D1F"/>
<path d="M805.581 210.193C805.581 210.193 812.029 199.402 828.332 209.434C828.332 209.434 812.982 210.928 811.48 214.218C809.978 217.508 805.581 210.193 805.581 210.193Z" fill="#1C1D1F"/>
<path d="M817.758 315.855C817.758 315.855 820.622 315.607 816.999 320.979" stroke="#EC6249" stroke-width="1.16113" stroke-miterlimit="10"/>
<path d="M725.541 341.965C732.879 343.683 741.58 345.185 751.411 345.866C763.084 346.679 773.418 346.137 781.918 345.131" stroke="#1C1D1F" stroke-width="1.16113" stroke-miterlimit="10"/>
<path d="M709.796 372.402C712.784 374.894 734.567 392.45 764.098 386.869C787.971 382.356 801.153 365.69 804.234 361.564" stroke="#EC6249" stroke-width="1.16113" stroke-miterlimit="10"/>
<path d="M740.914 291.456C740.024 290.511 734.187 284.543 725.053 284.868C717.451 285.139 712.575 289.582 711.39 290.728L712.853 291.703C712.853 291.703 725.053 279.016 740.914 291.456Z" fill="#1C1D1F"/>
<path d="M767.759 290.473C768.208 289.838 772.884 283.452 781.182 283.398C788.683 283.351 793.242 288.514 793.869 289.257C793.459 289.668 793.057 290.07 792.646 290.481C791.686 289.366 788.28 285.697 782.637 284.868C774.153 283.614 768.255 289.923 767.752 290.481L767.759 290.473Z" fill="#1C1D1F"/>
<path d="M696.312 915.237L736.68 797.081C728.072 737.778 720.773 674.52 715.524 607.623C710.485 543.405 707.845 482.221 706.986 424.451C708.132 425.558 735.635 451.296 770.167 441.295C794.28 434.313 805.674 414.574 808.02 410.293C813.663 522.342 819.298 634.383 824.941 746.432L836.491 842.519L871.719 921.763C871.719 921.763 770.074 980.415 696.312 915.229V915.237Z" fill="white"/>
<path d="M714.44 445.94C721.771 449.949 744.901 461.336 773.271 455.229C785.935 452.504 795.588 447.163 801.912 442.843" stroke="#E5E5E5" stroke-width="1.16113" stroke-miterlimit="10"/>
<path d="M727.329 784.092L687.866 900.259C687.866 900.259 687.394 902.318 686.418 905.12C649.208 889.182 629.825 867.546 629.825 867.546C629.825 867.546 615.063 849.618 616.116 836.962C617.169 824.313 644.587 810.604 647.753 804.799C650.919 799.001 639.315 776.328 634.57 761.566C631.296 751.379 631.791 697.766 632.403 665.502C634.469 673.576 638.363 680.604 645.26 684.343C668.684 697.03 678.91 679.598 673.073 715.159C667.229 750.721 660.138 774.052 685.404 774.346C703.402 774.555 719.719 755.582 721.91 737.987C722.251 735.278 722.196 733.072 722.135 731.926C723.868 749.312 725.61 766.698 727.344 784.084L727.329 784.092Z" fill="#8CD3FF"/>
<path d="M705.283 387.992L706.994 424.452C706.994 424.452 711.313 434.089 709.889 460.748L696.017 420.093C696.017 420.093 694.307 394.487 705.291 387.992H705.283Z" fill="#4CA4DA"/>
<path d="M960.453 698.084C952.008 674.954 943.555 651.824 935.109 628.695C935.109 628.695 938.275 657.166 944.6 687.223C950.924 717.281 957.782 748.918 954.616 761.048C951.45 773.17 941.96 788.992 947.758 827.488C953.564 865.975 923.506 875.473 923.506 875.473C903.155 887.154 883.78 896.227 865.418 903.116C858.947 884.979 826.389 790.154 835.616 742.532C847.343 749.313 860.402 759.794 865.38 775.709C869.916 790.208 864.698 799.481 870.798 804.35C881.473 812.881 914.921 798.436 917.243 781.128C919.124 767.117 899.408 760.158 901.762 744.746C903.697 732.051 917.886 731.455 920.34 718.427C923.08 703.851 906.84 696.489 904.177 680.396C902.358 669.388 906.631 652.73 935.047 628.633C948.362 651.097 951.164 655.672 957.496 659.596C967.435 665.758 972.265 661.748 976.848 667.337C984.674 676.874 972.041 690.312 976.848 704.493C983.9 725.316 1022.16 728.923 1021.74 730.812C1021.52 731.842 1010.1 730.828 959.818 721.523C960.027 713.713 960.236 705.902 960.445 698.092L960.453 698.084Z" fill="#8CD3FF"/>
<path d="M707.234 439.337L750.079 785.919C750.722 791.121 750.118 796.392 748.322 801.315L704.339 921.763L684.538 910.036L727.321 784.084L692.34 442.232L707.226 439.33L707.234 439.337Z" fill="#8CD3FF"/>
<path d="M691.365 496.488C691.365 496.488 706.521 442.751 710.175 465.811C710.268 460.532 709.982 454.486 708.944 447.876C708.472 444.841 707.884 441.993 707.234 439.337C703.889 440.081 701.312 441.35 691.365 496.488Z" fill="#4CA4DA"/>
<path d="M798.019 445.53L816.806 754.878L830.476 854.859L862.144 926.617L882.696 917.405L851.461 849.076L836.491 753.577L811.48 434.167L798.019 445.53Z" fill="#8CD3FF"/>
<path d="M800.31 483.274C800.31 483.274 801.192 448.363 804.606 450.321C808.02 452.28 814.127 496.488 814.127 496.488L816.813 460.748L812.912 440.065L804.862 441.295L798.026 445.522L800.318 483.274H800.31Z" fill="#4CA4DA"/>
<path d="M520.138 724.658C520.138 724.658 515.857 725.277 513.782 728.784C512.01 731.772 512.877 735.263 513.225 736.819C516.035 749.398 510.252 754.553 513.225 765.127C514.363 769.184 517.49 776.506 527.871 783.674C540.891 783.133 582.312 780.686 600.82 766.312C603.259 764.423 612.432 757.417 610.721 751.604C609.63 747.912 603.236 747.292 603.708 743.244C604.505 736.331 611.371 726.245 611.371 726.245C611.371 726.245 539.265 742.764 520.153 724.666L520.138 724.658Z" fill="#F0FAFF"/>
<path d="M972.017 778.302C969.455 776.127 954.747 763.455 953.958 752.92C953.865 751.681 953.64 746.092 954.043 739.118C954.267 735.301 954.484 735.921 954.445 733.885C954.283 725.052 950.908 719.115 953.958 716.313C954.863 715.477 956.001 715.245 956.729 715.16C970.384 720.338 987.692 725.633 1008.14 729C1028.74 732.391 1046.97 732.917 1061.65 732.36C1062.75 733.242 1064.58 734.984 1065.14 737.616C1065.49 739.257 1065.37 741.27 1064.26 743.638C1060.85 750.961 1054.46 757.487 1053.51 764.717C1052.55 771.947 1046.21 780.732 1046.21 780.732C1036.22 777.613 1021.97 774.393 1004.72 774.385C991.718 774.385 980.602 776.212 972.025 778.286L972.017 778.302Z" fill="#F0FAFF"/>
<path d="M684.538 910.044L727.329 784.092L692.348 442.241" stroke="#4CA4DA" stroke-width="1.16113" stroke-miterlimit="10"/>
<path d="M882.696 917.405L851.462 849.076L836.491 753.577L811.48 434.167" stroke="#4CA4DA" stroke-width="1.16113" stroke-miterlimit="10"/>
<path d="M807.648 386.111C809.018 389.609 810.303 393.913 810.985 398.906C812.842 412.6 809.096 423.778 806.549 429.684C807.315 423.282 807.88 416.292 808.097 408.784C808.329 400.609 808.12 393.023 807.648 386.111Z" fill="#4CA4DA"/>
<path d="M705.283 387.992C705.283 387.992 685.505 397.978 685.389 455.26L691.365 496.488C691.365 496.488 699.423 465.695 699.423 455.446C699.423 445.197 707.234 439.337 707.234 439.337C704.71 435.273 701.211 428.43 699.911 419.327C697.767 404.31 702.953 392.567 705.283 387.992Z" fill="#8CD3FF"/>
<path d="M807.648 386.111C807.648 386.111 817.758 395.051 823.014 410.115C828.27 425.179 821.442 460.841 818.021 475.711C814.607 490.581 814.119 496.487 814.119 496.487C814.777 454.377 809.181 444.779 804.227 443.617C802.547 443.223 800.503 443.703 798.011 445.522C799.265 443.571 800.96 440.777 802.74 437.293C805.728 431.433 809.955 423.135 811.193 412.654C812.432 402.111 810.234 392.868 807.648 386.111Z" fill="#8CD3FF"/>
<path d="M689.639 415.86C689.639 415.86 684.29 447.52 685.389 455.268C686.488 463.017 691.365 496.496 691.365 496.496C691.365 496.496 698.34 466.307 699.005 460.757C699.671 455.206 700.159 442.024 707.234 439.345" stroke="white" stroke-width="1.16113" stroke-miterlimit="10"/>
<path d="M814.12 496.488L822.294 453.627C822.294 453.627 825.746 424.638 824.934 419.66C824.121 414.683 820.707 400.045 811.921 390.771" stroke="white" stroke-width="1.16113" stroke-miterlimit="10"/>
<path d="M618.647 712.907C616.549 719.796 615.226 724.131 611.355 726.244C609.761 727.119 607.152 727.909 605.612 730.579C605.023 731.593 604.621 732.809 604.497 734.264L576.428 731.895C576.428 731.895 603.274 723.403 595.951 700.459C588.705 677.756 589.1 670.99 592.243 667.77C596.516 663.396 605.449 671.416 615.349 668.103C625.165 664.813 630.111 652.327 632.797 640.669C631.83 653.65 629.724 663.861 627.913 670.928C624.855 682.895 622.858 685.133 621.565 695.335C620.815 701.272 620.838 705.685 618.639 712.907H618.647Z" fill="#F0FAFF"/>
<path d="M959.392 709.246C960.22 705.67 959.346 702.961 960.414 698.301L959.361 736.053C958.672 735.581 957.844 735.217 957.256 734.156C956.211 732.267 956.683 730.742 956.884 727.553C957.341 720.401 955.514 719.673 956.729 715.176C957.503 712.288 958.634 712.582 959.392 709.254V709.246Z" fill="#4CA4DA"/>
<path d="M935.109 628.694C935.109 628.694 925.603 592.839 917.816 563.555" stroke="white" stroke-width="1.16113" stroke-miterlimit="10"/>
<path d="M520.137 724.658C520.137 724.658 535.124 744.676 595.796 728.908" stroke="white" stroke-width="1.16113" stroke-miterlimit="10"/>
<path d="M1052.86 732.562C1052.86 732.562 1006.54 736.517 967.435 718.976" stroke="white" stroke-width="1.16113" stroke-miterlimit="10"/>
<path d="M632.775 640.623C631.853 630.328 631.072 619.746 630.452 608.885C629.562 593.249 629.074 578.123 628.912 563.555" stroke="white" stroke-width="1.16113" stroke-miterlimit="10"/>
<path d="M707.234 510.236C710.067 510.236 712.366 507.937 712.366 505.104C712.366 502.271 710.067 499.972 707.234 499.972C704.401 499.972 702.109 502.271 702.109 505.104C702.109 507.937 704.408 510.236 707.234 510.236Z" fill="white"/>
<path d="M715.532 598.582C718.365 598.582 720.664 596.283 720.664 593.45C720.664 590.617 718.365 588.318 715.532 588.318C712.699 588.318 710.407 590.617 710.407 593.45C710.407 596.283 712.706 598.582 715.532 598.582Z" fill="white"/>
<path d="M732.608 743.05C735.441 743.05 737.74 740.751 737.74 737.918C737.74 735.085 735.441 732.786 732.608 732.786C729.775 732.786 727.484 735.085 727.484 737.918C727.484 740.751 729.783 743.05 732.608 743.05Z" fill="white"/>
</g>
</g>
<defs>
<clipPath id="clip0_4841_4587">
<rect width="1600" height="800" fill="white"/>
</clipPath>
<clipPath id="clip1_4841_4587">
<rect width="552.96" height="769" fill="white" transform="translate(512.35 177)"/>
</clipPath>
</defs>
</svg>
