<svg xmlns="http://www.w3.org/2000/svg" fill="none" viewBox="0 0 115 64"><g clip-path="url(#a)"><path fill="#1D1D1F" fill-rule="evenodd" d="M83 0a32 32 0 1 0 0 64 32 32 0 0 0 0-64ZM64.898 13.898a25.6 25.6 0 1 1 36.204 36.204 25.6 25.6 0 0 1-36.204-36.204ZM86.2 12.824l-6.4-.024-.8 20.856 11.413 10.18 4.2-4.2-7.613-9.293-.8-17.52Z" clip-rule="evenodd"/><circle cx="32" cy="32" r="34" fill="#1D1D1F" stroke="#00E2C7" stroke-width="4" transform="matrix(-1 0 0 1 64 0)"/><path fill="#00E2C7" fill-rule="evenodd" d="M40.334 18.382a42.437 42.437 0 0 0-8.465-.832c-2.915 0-5.737.277-8.466.832a6.214 6.214 0 0 0-4.827 4.7l-.86 3.766-.008.043h-3.587a.934.934 0 0 0-.934.934v2.803l3.736 1.868c0 .02.067.907 9.231 1.172v3.187h-5.497c-2.061 0-3.731-2.298-3.734-4.36v13.078h7.473l1.868-3.736h11.21l1.868 3.736h7.472V32.496c0 2.063-1.67 4.359-3.734 4.359h-5.499v-3.188c9.233-.268 9.233-1.171 9.233-1.171l3.737-1.868v-2.803a.934.934 0 0 0-.934-.934h-3.588l-.007-.043-.86-3.767a6.214 6.214 0 0 0-4.828-4.7ZM20.4 30.005l.433-2.538.84-3.68a3.038 3.038 0 0 1 2.363-2.294 39.266 39.266 0 0 1 7.834-.768c2.712 0 5.322.258 7.833.767a3.038 3.038 0 0 1 2.364 2.295l.84 3.68.433 2.538c-2.537-.543-6.732-1.245-11.47-1.245s-8.933.702-11.47 1.245Z" clip-rule="evenodd"/></g><defs><clipPath id="a"><path fill="#fff" d="M0 0h115v64H0z"/></clipPath></defs></svg>